<svg width="128" height="28" viewBox="0 0 128 28" fill="none" xmlns="http://www.w3.org/2000/svg">
<path d="M42.4335 23.7513V19.9547H31.5858V23.7513H28V16.6401H29.9285C30.3905 16.0977 30.722 15.3846 30.9229 14.5007C31.1438 13.5967 31.2543 12.6325 31.2543 11.608V5.64172H43.6086V16.6401H46.0192V23.7513H42.4335ZM35.051 11.5778C35.051 12.3814 35.0008 13.2351 34.9003 14.1391C34.7999 15.023 34.5789 15.8566 34.2374 16.6401H39.8119V8.9563H35.051V11.5778Z" fill="#181B21"/>
<path d="M55.0307 5.25C56.1356 5.25 57.1601 5.44084 58.1042 5.82252C59.0685 6.2042 59.8921 6.73654 60.5751 7.41954C61.2782 8.08245 61.8206 8.87594 62.2022 9.80001C62.604 10.7241 62.8049 11.7285 62.8049 12.8133C62.8049 13.898 62.604 14.9024 62.2022 15.8265C61.8206 16.7305 61.2782 17.524 60.5751 18.207C59.8921 18.8699 59.0685 19.3922 58.1042 19.7739C57.1601 20.1555 56.1356 20.3464 55.0307 20.3464C53.9259 20.3464 52.8913 20.1555 51.9271 19.7739C50.9829 19.3922 50.1593 18.8699 49.4562 18.207C48.7732 17.524 48.2308 16.7305 47.8291 15.8265C47.4474 14.9024 47.2565 13.898 47.2565 12.8133C47.2565 11.7285 47.4474 10.7241 47.8291 9.80001C48.2308 8.87594 48.7732 8.08245 49.4562 7.41954C50.1593 6.73654 50.9829 6.2042 51.9271 5.82252C52.8913 5.44084 53.9259 5.25 55.0307 5.25ZM55.0307 8.74537C54.4682 8.74537 53.946 8.84581 53.4638 9.04669C52.9817 9.24758 52.5599 9.52881 52.1983 9.8904C51.8367 10.2319 51.5554 10.6538 51.3546 11.156C51.1537 11.6582 51.0532 12.2106 51.0532 12.8133C51.0532 13.4159 51.1537 13.9683 51.3546 14.4705C51.5554 14.9527 51.8367 15.3745 52.1983 15.7361C52.5599 16.0776 52.9817 16.3488 53.4638 16.5497C53.946 16.7506 54.4682 16.851 55.0307 16.851C55.5932 16.851 56.1155 16.7506 56.5976 16.5497C57.0797 16.3488 57.5016 16.0776 57.8632 15.7361C58.2248 15.3745 58.506 14.9527 58.7069 14.4705C58.9078 13.9683 59.0082 13.4159 59.0082 12.8133C59.0082 12.2106 58.9078 11.6582 58.7069 11.156C58.506 10.6538 58.2248 10.2319 57.8632 9.8904C57.5016 9.52881 57.0797 9.24758 56.5976 9.04669C56.1155 8.84581 55.5932 8.74537 55.0307 8.74537Z" fill="#181B21"/>
<path d="M76.1369 19.9547H72.3402L68.9352 12.0298V19.9547H65.1385V5.64172H69.6283L74.2687 16.2785L78.9693 5.64172H83.3988V19.9547H79.6021V12.0298L76.1369 19.9547Z" fill="#181B21"/>
<path d="M86.0203 15.4649H90.5101V19.9547H86.0203V15.4649Z" fill="#181B21"/>
<path d="M108.433 12.7831C108.433 13.7674 108.262 14.7116 107.92 15.6156C107.599 16.5195 107.127 17.3231 106.504 18.0262C105.881 18.7293 105.108 19.2917 104.184 19.7136C103.28 20.1354 102.255 20.3464 101.11 20.3464C100.307 20.3464 99.5234 20.2158 98.76 19.9547C98.0167 19.6935 97.4041 19.3219 96.9219 18.8397V26.1017H93.1252V5.64172H96.9219V6.72649C97.4041 6.24437 98.0167 5.88278 98.76 5.64172C99.5234 5.38057 100.307 5.25 101.11 5.25C102.255 5.25 103.28 5.46093 104.184 5.88278C105.108 6.30464 105.881 6.86711 106.504 7.5702C107.127 8.25321 107.599 9.04669 107.92 9.95067C108.262 10.8546 108.433 11.7988 108.433 12.7831ZM104.636 12.7831C104.636 12.2407 104.535 11.7285 104.335 11.2464C104.154 10.7442 103.893 10.3123 103.551 9.95067C103.23 9.56899 102.828 9.27771 102.346 9.07683C101.884 8.85585 101.371 8.74537 100.809 8.74537C100.307 8.74537 99.8147 8.83577 99.3325 9.01656C98.8504 9.17727 98.4185 9.42837 98.0368 9.76987C97.6552 10.0913 97.3438 10.5031 97.1027 11.0053C96.8818 11.5075 96.7713 12.1001 96.7713 12.7831C96.7713 13.4661 96.8818 14.0587 97.1027 14.5609C97.3438 15.0631 97.6552 15.485 98.0368 15.8265C98.4185 16.168 98.8504 16.4292 99.3325 16.6099C99.8147 16.7707 100.307 16.851 100.809 16.851C101.371 16.851 101.884 16.7405 102.346 16.5195C102.828 16.2986 103.23 16.0073 103.551 15.6457C103.893 15.264 104.154 14.8321 104.335 14.35C104.535 13.8478 104.636 13.3255 104.636 12.7831Z" fill="#181B21"/>
<path d="M118.44 20.708C117.958 21.7526 117.536 22.6164 117.174 23.2994C116.833 24.0024 116.451 24.5549 116.029 24.9566C115.608 25.3785 115.115 25.6698 114.553 25.8305C113.99 26.0113 113.257 26.1017 112.353 26.1017H110.244V22.7871H111.871C112.414 22.7871 112.886 22.6264 113.287 22.305C113.709 21.9836 114.091 21.4412 114.432 20.6778L114.975 19.4424L108.707 5.64172H112.896L117.054 14.8623L121.212 5.64172H125.25L118.44 20.708Z" fill="#181B21"/>
<path fill-rule="evenodd" clip-rule="evenodd" d="M0 15.75C0 19.5212 0 21.4069 1.17157 22.5784C2.34315 23.75 4.22876 23.75 8 23.75H14C17.7712 23.75 19.6569 23.75 20.8284 22.5784C22 21.4069 22 19.5212 22 15.75V9.75C22 5.97876 22 4.09315 20.8284 2.92157C19.6569 1.75 17.7712 1.75 14 1.75H8C4.22876 1.75 2.34315 1.75 1.17157 2.92157C0 4.09315 0 5.97876 0 9.75V15.75Z" fill="#E30813"/>
</svg>
