<svg width="101" height="101" viewBox="0 0 101 101" fill="none" xmlns="http://www.w3.org/2000/svg">
<path d="M84.0098 16.455H76.9048V9.70898C76.9048 8.87998 76.2338 8.20898 75.4048 8.20898H15.9888C15.1598 8.20898 14.4888 8.87998 14.4888 9.70898V26.199C14.4888 27.028 15.1598 27.699 15.9888 27.699H75.4048C76.2338 27.699 76.9048 27.028 76.9048 26.199V19.455H82.5098V35.515L46.3688 44.235C45.6958 44.398 45.2208 45 45.2208 45.693V53.186H41.3938C40.5648 53.186 39.8938 53.857 39.8938 54.686V90.292C39.8938 91.121 40.5648 91.792 41.3938 91.792H52.0478C52.8768 91.792 53.5478 91.121 53.5478 90.292V54.686C53.5478 53.857 52.8768 53.186 52.0478 53.186H48.2208V46.874L84.3618 38.154C85.0348 37.991 85.5098 37.389 85.5098 36.696V17.955C85.5098 17.127 84.8388 16.455 84.0098 16.455ZM73.9058 24.699H17.4898V11.209H73.9058V24.699V24.699ZM50.5488 88.792H42.8948V56.186H50.5488V88.792V88.792Z" fill="#ED3D3D"/>
</svg>
