<svg width="101" height="101" viewBox="0 0 101 101" fill="none" xmlns="http://www.w3.org/2000/svg">
<path d="M82.5002 41.4C76.5002 36.3 68.7002 33.2 60.2002 33.2C57.6002 33.2 55.1002 33.5 52.7002 34C51.4002 27.3 46.3002 22.4 37.8002 19.9C31.4002 18 25.3002 18.2 25.1002 18.2C24.3002 18.2 23.7002 18.9 23.6002 19.7C23.6002 20.5 24.2002 21.2 25.0002 21.2C30.3002 21.5 31.7002 28.2 32.1002 30.2C32.9002 35.2 31.7002 39.1 30.8002 39.4C29.9002 39.8 28.8002 39.6 27.7002 39.1C25.3002 37.9 22.1002 34.4 20.3002 28C15.6002 12.5 3.7002 13.6 3.5002 13.6C2.8002 13.7 2.2002 14.3 2.2002 15C2.2002 15.7 2.6002 16.4 3.4002 16.6C9.7002 18 8.4002 28.5 7.3002 37.8C6.9002 41.3 6.5002 44.6 6.5002 47.3C6.9002 70.3 23.0002 73 26.2002 73.3C27.7002 82.5 32.9002 90.8 40.8002 96.2C41.0002 96.4 41.3002 96.5 41.6002 96.5H78.8002C79.2002 96.5 79.6002 96.3 79.9002 96C89.1002 89.5 94.6002 79 94.6002 67.7C94.6002 58.3 90.8002 49.7 84.6002 43.4L82.5002 41.4ZM9.5002 47.2C9.5002 44.8 9.8002 41.5 10.2002 38.2C11.0002 31.2 12.0002 23 9.4002 18C12.2002 19.5 15.4002 22.6 17.2002 29C19.0002 35.2 22.4002 40 26.2002 41.9C28.1002 42.8 30.0002 43 31.7002 42.3C34.8002 41.1 35.7002 35 34.9002 29.8C34.4002 26.5 33.2002 23.7 31.7002 21.8C38.4002 22.8 48.0002 25.9 49.7002 34.9C35.8002 39.3 25.7002 52.4 25.7002 67.8C25.7002 68.7 25.7002 69.5 25.8002 70.4C22.2002 69.8 9.9002 66.8 9.5002 47.2ZM78.3002 93.4H42.1002C33.9002 87.6 29.0002 78.3 28.7002 68.3H34.6002C35.4002 68.3 36.1002 67.6 36.1002 66.8C36.1002 66 35.4002 65.3 34.6002 65.3H28.8002C29.3002 58.3 32.2002 51.9 36.6002 46.9L41.0002 51.3C41.3002 51.6 41.7002 51.7 42.1002 51.7C42.5002 51.7 42.9002 51.6 43.2002 51.3C43.8002 50.7 43.8002 49.8 43.2002 49.2L38.7002 44.7C44.0002 39.7 51.0002 36.6 58.7002 36.2V42.6C58.7002 43.4 59.4002 44.1 60.2002 44.1C61.0002 44.1 61.7002 43.4 61.7002 42.6V36.2C68.8002 36.5 75.2002 39.2 80.3002 43.5L74.8002 49C74.2002 49.6 74.2002 50.5 74.8002 51.1C75.1002 51.4 75.5002 51.5 75.9002 51.5C76.3002 51.5 76.7002 51.4 77.0002 51.1L82.6002 45.5C87.0002 49.9 90.1002 55.7 91.2002 62.1C91.2002 62.2 91.5002 65.1 91.5002 65.2H85.8002C85.0002 65.2 84.3002 65.9 84.3002 66.7C84.3002 67.5 85.0002 68.2 85.8002 68.2H91.7002C91.8002 69 91.7002 66.9 91.7002 67.7C91.7002 77.9 86.7002 87.5 78.3002 93.4Z" fill="#ED3D3D"/>
<path d="M80.4002 65.3003H67.1002C66.4002 62.1003 63.6002 59.8003 60.2002 59.8003C56.3002 59.8003 53.2002 63.0003 53.2002 66.8003C53.2002 70.6003 56.4002 73.8003 60.2002 73.8003C63.6002 73.8003 66.4002 71.4003 67.1002 68.3003H80.5002C81.3002 68.3003 82.0002 67.6003 82.0002 66.8003C82.0002 66.0003 81.2002 65.3003 80.4002 65.3003ZM60.2002 70.8003C58.0002 70.8003 56.2002 69.0003 56.2002 66.8003C56.2002 64.6003 58.0002 62.8003 60.2002 62.8003C62.4002 62.8003 64.3002 64.6003 64.3002 66.8003C64.3002 69.0003 62.4002 70.8003 60.2002 70.8003Z" fill="#ED3D3D"/>
<path d="M55.8004 21.8002C58.5004 23.8002 61.1004 25.7002 61.8004 27.6002C62.0004 28.2002 62.6004 28.5002 63.2004 28.5002C63.8004 28.5002 64.3004 28.2002 64.6004 27.6002C66.2004 24.2002 67.2004 16.4002 59.8004 11.5002C57.8004 10.2002 55.9004 9.10019 54.3004 8.20019C51.6004 6.70019 49.4004 5.50019 47.8004 3.60019C47.4004 3.20019 46.8004 3.00019 46.2004 3.10019C45.6004 3.30019 45.2004 3.70019 45.1004 4.30019C45.1004 4.60019 44.2004 11.1002 50.3004 17.2002C51.9004 19.0002 53.9004 20.4002 55.8004 21.8002ZM52.8004 10.9002C54.4004 11.8002 56.2004 12.8002 58.1004 14.1002C62.5004 17.0002 62.9004 21.0002 62.6004 23.6002C61.2004 22.2002 59.4004 20.8002 57.6004 19.5002C55.8004 18.2002 53.9004 16.8002 52.5004 15.3002C50.0004 12.8002 48.9004 10.3002 48.4004 8.30019C49.7004 9.20019 51.2004 10.0002 52.8004 10.9002Z" fill="#ED3D3D"/>
</svg>
