<svg width="101" height="101" viewBox="0 0 101 101" fill="none" xmlns="http://www.w3.org/2000/svg">
<path d="M50.309 82.3088C46.038 82.3088 42.564 78.8348 42.564 74.5648C42.564 70.2938 46.038 66.8198 50.309 66.8198C54.584 66.8198 58.061 70.2938 58.061 74.5648C58.061 78.8348 54.584 82.3088 50.309 82.3088ZM50.309 69.8208C47.693 69.8208 45.564 71.9488 45.564 74.5658C45.564 77.1818 47.692 79.3098 50.309 79.3098C52.93 79.3098 55.061 77.1818 55.061 74.5658C55.061 71.9488 52.93 69.8208 50.309 69.8208Z" fill="#ED3D3D"/>
<path d="M30.8889 60.5719C30.5789 60.5719 30.2669 60.4769 29.9989 60.2789C29.3319 59.7869 29.1909 58.8479 29.6839 58.1809C34.5039 51.6509 42.2149 47.7529 50.3099 47.7529C58.1579 47.7529 65.4649 51.2789 70.3599 57.4279C70.8759 58.0759 70.7689 59.0199 70.1199 59.5359C69.4729 60.0529 68.5289 59.9439 68.0119 59.2959C63.6909 53.8659 57.2379 50.7529 50.3099 50.7529C43.0569 50.7529 36.4179 54.1099 32.0969 59.9629C31.8019 60.3619 31.3479 60.5719 30.8889 60.5719Z" fill="#ED3D3D"/>
<path d="M19.061 49.1079C18.725 49.1079 18.386 48.9949 18.106 48.7639C17.468 48.2359 17.378 47.2909 17.906 46.6519C25.933 36.9449 37.743 31.3779 50.308 31.3779C62.49 31.3779 74.054 36.6559 82.035 45.8569C82.577 46.4829 82.511 47.4299 81.885 47.9729C81.26 48.5149 80.312 48.4479 79.769 47.8229C72.358 39.2779 61.621 34.3779 50.309 34.3779C38.642 34.3779 27.674 39.5479 20.218 48.5639C19.922 48.9229 19.493 49.1079 19.061 49.1079Z" fill="#ED3D3D"/>
<path d="M8.78098 38.8019C8.43198 38.8019 8.08198 38.6809 7.79798 38.4349C7.17298 37.8919 7.10598 36.9439 7.64898 36.3189C18.387 23.9509 33.937 16.8569 50.31 16.8569C66.343 16.8569 81.684 23.7079 92.399 35.6519C92.952 36.2689 92.9 37.2169 92.284 37.7699C91.668 38.3229 90.72 38.2719 90.166 37.6549C80.019 26.3439 65.493 19.8569 50.311 19.8569C34.808 19.8569 20.084 26.5739 9.91598 38.2859C9.61698 38.6269 9.19998 38.8019 8.78098 38.8019Z" fill="#ED3D3D"/>
</svg>
