<svg width="101" height="101" viewBox="0 0 101 101" fill="none" xmlns="http://www.w3.org/2000/svg">
<path d="M94.33 28.2601L78.53 24.7401C79.937 23.4822 80.8824 21.7893 81.2154 19.9316C81.5484 18.0738 81.2499 16.158 80.3674 14.4896C79.4849 12.8213 78.0692 11.4964 76.3461 10.7262C74.623 9.95604 72.6917 9.78491 70.86 10.2401C67.03 11.2401 61.38 18.2401 59.81 20.2401C59.25 17.7701 57.11 9.00012 54.05 6.50012C52.5849 5.31114 50.7641 4.64671 48.8775 4.6127C46.991 4.57869 45.1474 5.17707 43.6404 6.31247C42.1334 7.44788 41.0498 9.05499 40.5623 10.8777C40.0747 12.7005 40.2112 14.634 40.95 16.3701L23.66 12.5201C23.4676 12.4774 23.2687 12.4729 23.0746 12.5071C22.8805 12.5412 22.695 12.6133 22.5288 12.7192C22.3625 12.8251 22.2188 12.9626 22.1057 13.1241C21.9927 13.2855 21.9126 13.4677 21.87 13.6601L18.68 28.0001C18.6372 28.1925 18.6328 28.3914 18.667 28.5855C18.7011 28.7797 18.7732 28.9651 18.8791 29.1314C18.9849 29.2976 19.1225 29.4413 19.284 29.5544C19.4454 29.6674 19.6276 29.7475 19.82 29.7901L85 44.3001V81.0001H52V43.5001C52 43.1023 51.842 42.7208 51.5607 42.4395C51.2794 42.1582 50.8978 42.0001 50.5 42.0001C50.1022 42.0001 49.7206 42.1582 49.4393 42.4395C49.158 42.7208 49 43.1023 49 43.5001V81.0001H16V41.0001H37.5C37.8978 41.0001 38.2794 40.8421 38.5607 40.5608C38.842 40.2795 39 39.8979 39 39.5001C39 39.1023 38.842 38.7208 38.5607 38.4395C38.2794 38.1582 37.8978 38.0001 37.5 38.0001H14.5C14.1022 38.0001 13.7206 38.1582 13.4393 38.4395C13.158 38.7208 13 39.1023 13 39.5001V82.5001C13 82.8979 13.158 83.2795 13.4393 83.5608C13.7206 83.8421 14.1022 84.0001 14.5 84.0001H86.5C86.8978 84.0001 87.2794 83.8421 87.5607 83.5608C87.842 83.2795 88 82.8979 88 82.5001V45.0001L90.48 45.5501C90.5897 45.5624 90.7003 45.5624 90.81 45.5501C91.1499 45.5494 91.4795 45.4332 91.7448 45.2206C92.01 45.0081 92.1952 44.7117 92.27 44.3801L95.46 30.0601C95.5044 29.8677 95.5103 29.6684 95.4775 29.4737C95.4447 29.279 95.3738 29.0927 95.2688 28.9255C95.1638 28.7582 95.0268 28.6134 94.8657 28.4992C94.7046 28.385 94.5226 28.3038 94.33 28.2601V28.2601ZM71.58 13.1601C72.9638 12.86 74.4102 13.1102 75.6127 13.8579C76.8152 14.6055 77.6796 15.7919 78.0227 17.1657C78.3658 18.5395 78.1608 19.9929 77.451 21.2181C76.7412 22.4434 75.5824 23.3443 74.22 23.7301H74.12L62.85 21.2501C65.46 18.0001 69.5 13.6801 71.58 13.1601ZM45.28 17.2801C44.1999 16.3552 43.524 15.0447 43.3967 13.6284C43.2694 12.2121 43.7007 10.8021 44.5985 9.69942C45.4964 8.59668 46.7897 7.88855 48.2024 7.72614C49.6151 7.56373 51.0353 7.9599 52.16 8.83012C53.82 10.1901 55.64 15.8301 56.63 19.8301L45.36 17.3601L45.28 17.2801ZM89.67 42.2801L21.93 27.1701L24.47 15.7701L92.21 30.8701L89.67 42.2801Z" fill="#ED3D3D"/>
</svg>
