<svg width="101" height="101" viewBox="0 0 101 101" fill="none" xmlns="http://www.w3.org/2000/svg">
<path d="M87.7422 21.4082H13.6902C10.8112 21.4082 8.46924 23.5032 8.46924 26.0782V71.5302C8.46924 74.1052 10.8112 76.2012 13.6902 76.2012H87.7422C90.6212 76.2012 92.9632 74.1052 92.9632 71.5302V26.0782C92.9632 23.5032 90.6212 21.4082 87.7422 21.4082ZM89.9632 71.5302C89.9632 72.4352 88.9462 73.2012 87.7422 73.2012H13.6902C12.4862 73.2012 11.4692 72.4352 11.4692 71.5302V26.0782C11.4692 25.1732 12.4862 24.4082 13.6902 24.4082H87.7422C88.9462 24.4082 89.9632 25.1732 89.9632 26.0782V71.5302V71.5302Z" fill="#ED3D3D"/>
<path d="M50.7154 28.7822C39.6754 28.7822 30.6934 37.7642 30.6934 48.8042C30.6934 59.8442 39.6754 68.8262 50.7154 68.8262C61.7554 68.8262 70.7374 59.8442 70.7374 48.8042C70.7374 37.7642 61.7554 28.7822 50.7154 28.7822ZM50.7154 65.8262C41.3294 65.8262 33.6934 58.1892 33.6934 48.8042C33.6934 39.4192 41.3294 31.7822 50.7154 31.7822C60.1014 31.7822 67.7374 39.4182 67.7374 48.8042C67.7374 58.1902 60.1014 65.8262 50.7154 65.8262Z" fill="#ED3D3D"/>
<path d="M59.5722 47.535L47.8102 40.126C47.3492 39.834 46.7642 39.817 46.2862 40.082C45.8072 40.346 45.5112 40.849 45.5112 41.395V56.213C45.5112 56.759 45.8082 57.262 46.2862 57.526C46.5122 57.651 46.7612 57.713 47.0112 57.713C47.2892 57.713 47.5672 57.636 47.8102 57.483L59.5722 50.073C60.0082 49.799 60.2722 49.319 60.2722 48.804C60.2722 48.289 60.0082 47.809 59.5722 47.535ZM48.5112 53.495V44.112L55.9582 48.803L48.5112 53.495Z" fill="#ED3D3D"/>
</svg>
